<?xml version="1.0" encoding="utf-8"?>
<!-- Generator: Adobe Illustrator 20.1.0, SVG Export Plug-In . SVG Version: 6.00 Build 0)  -->
<svg version="1.1"
	 id="Layer_1" xmlns:cc="http://creativecommons.org/ns#" xmlns:dc="http://purl.org/dc/elements/1.1/" xmlns:inkscape="http://www.inkscape.org/namespaces/inkscape" xmlns:rdf="http://www.w3.org/1999/02/22-rdf-syntax-ns#" xmlns:sodipodi="http://sodipodi.sourceforge.net/DTD/sodipodi-0.dtd" xmlns:svg="http://www.w3.org/2000/svg"
	 xmlns="http://www.w3.org/2000/svg" xmlns:xlink="http://www.w3.org/1999/xlink" x="0px" y="0px" viewBox="0 0 100 125"
	 style="enable-background:new 0 0 100 125;" xml:space="preserve">
<g transform="translate(0,-952.36218)">
	<path d="M50,962.4c-23.1,0-42,15.3-42,34.4c0,10.8,6.4,19.7,15.8,25.9l-7.7,18.3c-0.2,0.5,0,1.1,0.5,1.3c0.3,0.1,0.6,0.1,0.8,0
		l21.8-11.8c3.1,0.5,7.6,0.8,10.8,0.8c23.1,0,42-15.3,42-34.4C92,977.6,73.1,962.4,50,962.4L50,962.4z M50,964.4
		c22.2,0,40,14.6,40,32.4c0,17.8-17.8,32.4-40,32.4c-3.1,0-8-0.3-10.8-0.8c-0.2,0-0.5,0-0.7,0.1L19,1039.1l6.9-16.4
		c0.2-0.4,0-1-0.4-1.2c-9.4-6-15.5-14.4-15.5-24.8C10,979,27.8,964.4,50,964.4L50,964.4z M27,990.4c-3.3,0-6,2.7-6,6s2.7,6,6,6
		s6-2.7,6-6S30.3,990.4,27,990.4z M50,990.4c-3.3,0-6,2.7-6,6s2.7,6,6,6s6-2.7,6-6S53.3,990.4,50,990.4z M73,990.4c-3.3,0-6,2.7-6,6
		s2.7,6,6,6c3.3,0,6-2.7,6-6S76.3,990.4,73,990.4z M27,992.4c2.2,0,4,1.8,4,4s-1.8,4-4,4s-4-1.8-4-4S24.8,992.4,27,992.4z M50,992.4
		c2.2,0,4,1.8,4,4s-1.8,4-4,4s-4-1.8-4-4S47.8,992.4,50,992.4z M73,992.4c2.2,0,4,1.8,4,4s-1.8,4-4,4s-4-1.8-4-4
		S70.8,992.4,73,992.4z"/>
</g>
</svg>
