<?xml version="1.0" encoding="utf-8"?>
<!-- Generator: Adobe Illustrator 20.1.0, SVG Export Plug-In . SVG Version: 6.00 Build 0)  -->
<svg version="1.1" id="Layer_1" xmlns="http://www.w3.org/2000/svg" xmlns:xlink="http://www.w3.org/1999/xlink" x="0px" y="0px"
	 viewBox="0 0 100 125" style="enable-background:new 0 0 100 125;" xml:space="preserve">
<g>
	<path d="M50,83.7c-0.1,0-0.1,0-0.2,0l-7.3-1.4c-0.5-0.1-0.8-0.5-0.8-1v-6.2c-1.2-0.4-2.4-0.9-3.5-1.5l-4.4,4.4
		c-0.3,0.3-0.9,0.4-1.3,0.1L26.3,74c-0.1-0.1-0.2-0.2-0.3-0.3l-4.2-6.2c-0.3-0.4-0.2-0.9,0.1-1.3l4.4-4.4c-0.6-1.1-1.1-2.3-1.5-3.5
		h-6.2c-0.5,0-0.9-0.3-1-0.8l-1.4-7.3c0-0.1,0-0.3,0-0.4l1.4-7.3c0.1-0.5,0.5-0.8,1-0.8h6.2c0.4-1.2,0.9-2.4,1.5-3.5l-4.4-4.4
		c-0.3-0.3-0.4-0.9-0.1-1.3l4.2-6.2c0.1-0.1,0.2-0.2,0.3-0.3l6.2-4.2c0.4-0.3,0.9-0.2,1.3,0.1l4.4,4.4c1.1-0.6,2.3-1.1,3.5-1.5v-6.2
		c0-0.5,0.3-0.9,0.8-1l7.3-1.4c0.1,0,0.2,0,0.4,0l7.3,1.4c0.5,0.1,0.8,0.5,0.8,1v6.2c1.2,0.4,2.4,0.9,3.5,1.5l4.4-4.4
		c0.3-0.3,0.9-0.4,1.3-0.1l6.2,4.2c0.1,0.1,0.2,0.2,0.3,0.3l4.2,6.2c0.3,0.4,0.2,0.9-0.1,1.3l-4.4,4.4c0.6,1.1,1.1,2.3,1.5,3.5h6.2
		c0.5,0,0.9,0.3,1,0.8l1.4,7.3c0,0.1,0,0.3,0,0.4l-1.4,7.3c-0.1,0.5-0.5,0.8-1,0.8h-6.2c-0.4,1.2-0.9,2.4-1.5,3.5l4.4,4.4
		c0.3,0.3,0.4,0.9,0.1,1.3L74,73.7c-0.1,0.1-0.2,0.2-0.3,0.3l-6.2,4.2c-0.4,0.3-0.9,0.2-1.3-0.1l-4.4-4.4c-1.1,0.6-2.3,1.1-3.5,1.5
		v6.2c0,0.5-0.3,0.9-0.8,1l-7.3,1.4C50.1,83.7,50.1,83.7,50,83.7z M43.7,80.5l6.3,1.2l6.3-1.2v-6.1c0-0.4,0.3-0.8,0.7-1
		c1.6-0.5,3.1-1.1,4.5-1.9c0.4-0.2,0.9-0.1,1.2,0.2l4.3,4.3l5.3-3.6l3.6-5.3l-4.3-4.3c-0.3-0.3-0.4-0.8-0.2-1.2
		c0.8-1.4,1.4-2.9,1.9-4.5c0.1-0.4,0.5-0.7,1-0.7h6.1l1.2-6.3l-1.2-6.3h-6.1c-0.4,0-0.8-0.3-1-0.7c-0.5-1.6-1.1-3.1-1.9-4.5
		c-0.2-0.4-0.1-0.9,0.2-1.2l4.3-4.3l-3.6-5.3l-5.3-3.6l-4.3,4.3c-0.3,0.3-0.8,0.4-1.2,0.2c-1.4-0.8-2.9-1.4-4.5-1.9
		c-0.4-0.1-0.7-0.5-0.7-1v-6.1L50,18.3l-6.3,1.2v6.1c0,0.4-0.3,0.8-0.7,1c-1.6,0.5-3.1,1.1-4.5,1.9c-0.4,0.2-0.9,0.1-1.2-0.2
		l-4.3-4.3l-5.3,3.6l-3.6,5.3l4.3,4.3c0.3,0.3,0.4,0.8,0.2,1.2c-0.8,1.4-1.4,2.9-1.9,4.5c-0.1,0.4-0.5,0.7-1,0.7h-6.1L18.3,50
		l1.2,6.3h6.1c0.4,0,0.8,0.3,1,0.7c0.5,1.6,1.1,3.1,1.9,4.5c0.2,0.4,0.1,0.9-0.2,1.2l-4.3,4.3l3.6,5.3l5.3,3.6l4.3-4.3
		c0.3-0.3,0.8-0.4,1.2-0.2c1.4,0.8,2.9,1.4,4.5,1.9c0.4,0.1,0.7,0.5,0.7,1L43.7,80.5L43.7,80.5z M50,65.5c-8.6,0-15.5-7-15.5-15.5
		s7-15.5,15.5-15.5s15.5,7,15.5,15.5S58.6,65.5,50,65.5z M50,36.5c-7.5,0-13.5,6.1-13.5,13.5S42.5,63.5,50,63.5S63.5,57.5,63.5,50
		S57.5,36.5,50,36.5z"/>
</g>
</svg>
